<?xml version="1.0" standalone="no"?>
<!DOCTYPE svg PUBLIC "-//W3C//DTD SVG 20010904//EN"
 "http://www.w3.org/TR/2001/REC-SVG-20010904/DTD/svg10.dtd">
<svg version="1.0" xmlns="http://www.w3.org/2000/svg"
 width="192.000000pt" height="192.000000pt" viewBox="0 0 192.000000 192.000000"
 preserveAspectRatio="xMidYMid meet">
<metadata>
Created by potrace 1.14, written by Peter Selinger 2001-2017
</metadata>
<g transform="translate(0.000000,192.000000) scale(0.100000,-0.100000)"
fill="#000000" stroke="none">
<path d="M805 1408 c6 -34 25 -63 25 -39 0 9 8 11 26 7 25 -7 25 -6 10 10 -10
9 -15 24 -12 33 5 13 4 13 -8 -1 -16 -22 -26 -23 -26 -4 0 8 -5 18 -10 21 -7
4 -8 -5 -5 -27z"/>
<path d="M890 1429 c-13 -9 -12 -10 2 -5 10 3 20 1 23 -4 4 -6 -1 -10 -9 -10
-19 0 -27 -13 -17 -28 10 -17 51 -3 48 17 -3 20 -16 41 -25 41 -4 0 -14 -5
-22 -11z m30 -33 c0 -3 -4 -8 -10 -11 -5 -3 -10 -1 -10 4 0 6 5 11 10 11 6 0
10 -2 10 -4z"/>
<path d="M957 1421 c-2 -10 -1 -25 4 -32 6 -10 9 -8 9 8 0 12 5 25 11 29 14 8
29 -14 22 -33 -3 -7 -1 -13 5 -13 8 0 9 18 3 53 -3 16 -49 6 -54 -12z"/>
<path d="M1090 1440 c-7 -16 -7 -81 0 -85 15 -9 18 8 10 50 -4 22 -9 38 -10
35z"/>
<path d="M1121 1401 c-8 -15 -7 -20 5 -25 8 -3 12 -10 9 -16 -3 -5 -3 -15 0
-20 4 -6 19 3 36 21 16 18 27 34 24 38 -4 3 -15 -5 -25 -19 l-20 -25 0 33 c0
36 -14 42 -29 13z"/>
<path d="M748 1389 c-22 -12 -22 -28 -2 -54 13 -18 14 -17 8 12 -8 41 11 51
30 16 8 -15 15 -22 16 -15 0 17 -19 52 -28 52 -4 0 -15 -5 -24 -11z"/>
<path d="M1202 1353 c-13 -19 -21 -37 -19 -39 3 -3 15 11 27 31 29 47 22 54
-8 8z"/>
<path d="M676 1345 c-9 -9 -16 -19 -16 -23 0 -3 5 -1 12 6 7 7 17 12 22 12 6
0 5 -5 -2 -12 -18 -18 -14 -38 7 -38 28 0 35 30 13 53 -18 17 -20 17 -36 2z
m44 -29 c0 -2 -7 -6 -15 -10 -8 -3 -15 -1 -15 4 0 6 7 10 15 10 8 0 15 -2 15
-4z"/>
<path d="M1230 1329 c-12 -16 -20 -32 -17 -35 6 -6 47 45 47 57 0 16 -8 10
-30 -22z"/>
<path d="M1245 1300 c-9 -14 3 -47 20 -53 7 -3 25 4 39 16 29 25 34 39 11 31
-8 -4 -15 -1 -15 5 0 14 -47 15 -55 1z m43 -17 c-5 -25 -28 -28 -28 -4 0 12 6
21 16 21 9 0 14 -7 12 -17z"/>
<path d="M617 1268 c27 -27 34 -29 47 -18 9 7 16 17 16 22 0 6 -7 5 -15 -2
-13 -11 -20 -9 -38 9 -37 34 -45 24 -10 -11z"/>
<path d="M1316 1244 c-15 -14 -26 -27 -23 -30 3 -3 20 8 39 25 18 17 29 30 23
30 -5 0 -23 -11 -39 -25z"/>
<path d="M574 1205 c11 -8 25 -15 30 -15 6 0 2 7 -8 15 -11 8 -25 15 -30 15
-6 0 -2 -7 8 -15z"/>
<path d="M1324 1199 c-19 -22 -19 -22 3 -10 24 12 39 31 25 31 -5 0 -17 -10
-28 -21z"/>
<path d="M537 1186 c-9 -23 -9 -23 28 -30 27 -6 28 -5 8 5 -12 6 -24 19 -25
28 -3 13 -5 13 -11 -3z"/>
<path d="M1370 1190 c0 -5 -9 -12 -20 -15 -11 -3 -20 -10 -20 -15 0 -5 7 -7
16 -3 9 3 25 6 37 7 27 1 33 22 7 29 -11 3 -20 1 -20 -3z"/>
<path d="M492 1133 c-20 -39 18 -60 44 -26 17 25 28 10 13 -19 -11 -21 -11
-22 4 -9 20 16 22 47 5 57 -6 4 -19 -2 -29 -14 -23 -29 -33 -28 -25 3 7 29 1
33 -12 8z"/>
<path d="M1357 1134 c-11 -11 -8 -42 4 -50 8 -4 9 1 5 17 -6 22 -6 23 7 7 20
-25 39 -22 35 5 -3 22 -36 36 -51 21z m41 -29 c-3 -3 -9 2 -12 12 -6 14 -5 15
5 6 7 -7 10 -15 7 -18z"/>
<path d="M930 1039 c-17 -4 -44 -18 -58 -31 -49 -45 -67 -44 -63 5 3 22 -15
22 -27 1 -23 -41 24 -78 71 -57 26 12 69 1 48 -12 -8 -4 -17 -2 -22 6 -8 13
-13 5 -10 -14 1 -5 -3 -6 -8 -3 -10 7 -24 -40 -16 -54 8 -14 34 0 29 15 -3 7
5 20 18 29 30 21 38 20 38 -4 0 -13 10 -24 26 -30 36 -14 52 -1 24 20 -25 19
-20 40 11 40 15 0 19 -6 17 -22 -2 -14 2 -22 9 -21 7 2 10 -4 7 -12 -8 -19 24
-20 49 -1 20 16 22 37 5 56 -8 8 -1 6 15 -4 38 -23 54 -15 51 24 -1 17 -4 32
-6 33 -1 1 -14 9 -28 17 -30 17 -134 28 -180 19z m173 -35 c16 -11 27 -29 27
-43 0 -23 -1 -23 -19 -7 -13 12 -29 16 -51 12 -24 -3 -30 -1 -26 10 3 8 1 14
-4 14 -6 0 -10 -7 -10 -15 0 -23 -16 -18 -40 13 -19 24 -20 25 -15 5 4 -14 0
-32 -9 -45 -9 -13 -16 -17 -16 -9 0 18 -46 61 -56 52 -4 -3 -4 0 0 7 14 23 49
31 122 28 51 -2 78 -8 97 -22z m-32 -71 c13 -16 12 -17 -3 -4 -10 7 -18 15
-18 17 0 8 8 3 21 -13z m-24 -25 c-3 -8 -6 -5 -6 6 -1 11 2 17 5 13 3 -3 4
-12 1 -19z"/>
<path d="M492 988 c-16 -16 -15 -55 1 -61 39 -13 68 25 41 54 -20 22 -26 23
-42 7z"/>
<path d="M1386 984 c-19 -19 -20 -25 -3 -48 11 -15 17 -17 35 -7 27 14 28 47
3 61 -15 7 -23 6 -35 -6z"/>
<path d="M545 838 c-2 -7 -6 -22 -8 -33 -5 -19 -5 -19 -12 2 -9 28 -25 21 -18
-7 7 -25 43 -27 44 -2 1 9 1 20 0 25 0 4 6 7 14 7 8 0 15 -8 16 -17 0 -12 2
-13 6 -5 5 14 -14 42 -29 42 -5 0 -10 -6 -13 -12z"/>
<path d="M1362 831 c-23 -14 -10 -46 18 -46 19 0 26 6 27 25 l3 25 -11 -25
c-7 -15 -13 -20 -16 -12 -3 6 -9 10 -14 6 -5 -3 -9 0 -9 6 0 7 7 10 15 6 9 -3
15 0 15 9 0 17 -9 19 -28 6z"/>
<path d="M1316 791 c-11 -16 4 -37 34 -48 39 -14 39 1 1 23 -17 10 -28 21 -25
26 3 4 3 8 0 8 -3 0 -7 -4 -10 -9z"/>
<path d="M545 756 c-17 -12 -16 -13 13 -12 18 1 32 6 32 14 0 16 -22 15 -45
-2z"/>
<path d="M574 715 c-10 -8 -14 -15 -8 -15 5 0 19 7 30 15 10 8 14 15 8 15 -5
0 -19 -7 -30 -15z"/>
<path d="M1326 715 c25 -19 40 -19 24 0 -7 8 -20 15 -28 15 -13 0 -12 -3 4
-15z"/>
<path d="M1300 691 c19 -16 37 -27 40 -24 6 6 -51 53 -65 53 -5 0 6 -14 25
-29z"/>
<path d="M1257 684 c3 -8 0 -21 -7 -29 -16 -19 -6 -45 18 -45 33 0 46 25 27
53 -19 29 -47 44 -38 21z m29 -35 c8 -14 -11 -33 -25 -25 -11 7 -4 36 9 36 5
0 12 -5 16 -11z"/>
<path d="M630 665 c-25 -27 -21 -54 11 -63 10 -3 9 1 -3 14 -17 17 -17 19 9
46 15 15 22 28 17 28 -6 0 -21 -11 -34 -25z"/>
<path d="M1200 638 c1 -15 50 -78 50 -64 0 10 -40 76 -46 76 -2 0 -4 -6 -4
-12z"/>
<path d="M700 615 c9 -11 9 -15 1 -15 -7 0 -9 -4 -6 -10 3 -5 1 -10 -5 -10 -7
0 -10 7 -6 15 6 16 -9 21 -19 6 -5 -9 20 -41 33 -41 4 0 13 9 20 21 10 16 10
24 1 35 -6 8 -16 14 -21 14 -6 0 -5 -7 2 -15z"/>
<path d="M1162 609 c-7 -11 -10 -30 -6 -42 l6 -22 -24 23 c-33 30 -41 28 -36
-8 5 -35 -2 -38 -20 -10 -7 11 -17 20 -23 20 -15 0 34 -59 50 -59 9 -1 12 7 9
24 -6 27 9 35 18 10 12 -29 35 -17 33 18 -1 17 2 40 6 50 10 23 3 22 -13 -4z"/>
<path d="M1196 575 c9 -14 19 -24 21 -21 6 6 -20 46 -30 46 -4 0 0 -11 9 -25z"/>
<path d="M740 580 c0 -5 -3 -17 -6 -27 -5 -17 -5 -17 10 1 9 11 21 16 32 12
13 -5 14 -9 4 -21 -7 -9 -11 -18 -8 -20 12 -13 29 24 20 42 -10 19 -52 29 -52
13z"/>
<path d="M820 554 c-6 -14 -10 -33 -10 -42 0 -15 2 -15 10 -2 9 13 13 12 26
-5 l16 -20 -3 20 c-2 11 0 26 5 34 6 10 4 12 -12 7 -17 -6 -19 -3 -15 14 8 29
-6 25 -17 -6z"/>
<path d="M890 540 c0 -5 8 -10 18 -11 12 0 11 -3 -6 -10 -30 -11 -23 -34 9
-34 20 0 23 4 20 25 -4 31 -41 58 -41 30z m25 -40 c-3 -5 -11 -10 -16 -10 -6
0 -7 5 -4 10 3 6 11 10 16 10 6 0 7 -4 4 -10z"/>
<path d="M958 533 c-3 -4 -2 -19 3 -33 6 -23 7 -23 8 -3 1 12 6 25 12 29 12 7
31 -15 23 -27 -2 -4 0 -11 6 -14 7 -4 10 3 7 22 -3 21 -10 29 -29 31 -15 2
-28 0 -30 -5z"/>
</g>
</svg>
